<?xml version="1.0" encoding="UTF-8" standalone="no"?>
<!-- Created with Inkscape (http://www.inkscape.org/) -->

<svg
   width="300mm"
   height="300mm"
   viewBox="0 0 300 300"
   version="1.1"
   id="svg5"
   xml:space="preserve"
   inkscape:version="1.2.1 (9c6d41e410, 2022-07-14)"
   sodipodi:docname="logo.svg"
   xmlns:inkscape="http://www.inkscape.org/namespaces/inkscape"
   xmlns:sodipodi="http://sodipodi.sourceforge.net/DTD/sodipodi-0.dtd"
   xmlns="http://www.w3.org/2000/svg"
   xmlns:svg="http://www.w3.org/2000/svg"><sodipodi:namedview
     id="namedview7"
     pagecolor="#ffffff"
     bordercolor="#000000"
     borderopacity="0.25"
     inkscape:showpageshadow="2"
     inkscape:pageopacity="0.0"
     inkscape:pagecheckerboard="true"
     inkscape:deskcolor="#d1d1d1"
     inkscape:document-units="mm"
     showgrid="false"
     inkscape:zoom="0.89263468"
     inkscape:cx="401.62007"
     inkscape:cy="600.46961"
     inkscape:window-width="2560"
     inkscape:window-height="1369"
     inkscape:window-x="1912"
     inkscape:window-y="-8"
     inkscape:window-maximized="1"
     inkscape:current-layer="layer1" /><defs
     id="defs2" /><g
     inkscape:label="Camada 1"
     inkscape:groupmode="layer"
     id="layer1"><g
       transform="matrix(0.04934734,0,0,-0.04934734,-0.06968003,192.43541)"
       fill="#000000"
       stroke="none"
       id="g19"
       style="fill:#000000;stroke:#800080;stroke-opacity:1;stroke-width:29.36328481;stroke-dasharray:none"
       inkscape:export-filename="..\app\static\img\logo.png"
       inkscape:export-xdpi="96"
       inkscape:export-ydpi="96"><path
         d="m 2252,1571 c -99,-34 -172,-132 -172,-230 v -50 l -52,-23 -53,-24 -33,22 c -71,49 -230,55 -350,15 -52,-18 -55,-18 -94,1 -55,26 -166,33 -249,16 l -67,-14 -33,45 c -85,113 -206,166 -384,166 -132,-1 -192,-14 -305,-67 C 391,1395 360,1372 295,1306 176,1186 104,1029 85,850 63,644 171,472 361,411 c 31,-10 41,-22 73,-86 71,-144 170,-202 330,-193 95,5 131,21 199,86 51,50 81,115 93,199 l 6,49 60,-30 c 83,-41 195,-48 287,-16 l 64,21 49,-21 c 70,-30 168,-36 246,-16 51,13 72,14 107,5 26,-7 116,-9 232,-7 158,3 193,6 222,22 33,17 35,17 98,-3 111,-36 231,-22 295,36 16,15 23,13 80,-17 77,-41 187,-52 261,-27 41,14 51,14 96,0 42,-12 110,-14 384,-11 310,4 336,6 399,26 l 67,22 43,-22 c 41,-22 54,-23 253,-23 197,0 213,1 255,22 l 44,22 51,-24 c 103,-51 269,-42 393,20 44,23 70,31 78,24 6,-5 45,-21 85,-35 98,-35 325,-45 432,-20 193,45 309,165 310,320 0,35 -7,77 -16,100 -17,38 -17,39 10,70 37,44 53,88 53,147 0,128 -98,216 -282,253 -138,28 -333,15 -417,-28 -40,-21 -59,-12 -71,34 -24,88 -93,132 -206,132 -80,-1 -142,-22 -197,-68 l -32,-27 -7,43 c -16,95 -89,170 -186,191 -147,31 -302,-97 -302,-252 0,-54 -14,-56 -47,-7 -36,54 -97,100 -170,130 -57,22 -66,23 -383,23 -290,0 -328,-2 -357,-17 -67,-37 -99,-125 -73,-202 17,-53 4,-62 -38,-25 -102,90 -263,101 -356,26 l -30,-24 -39,28 c -44,32 -132,53 -193,46 l -41,-4 -6,57 c -9,106 -72,186 -169,215 -65,19 -81,19 -146,-4 z m 148,-130 c 36,-26 51,-60 46,-104 -8,-69 -68,-127 -131,-127 -75,0 -137,80 -116,150 16,51 41,79 86,95 45,15 78,11 115,-14 z m 2223,7 c 28,-15 50,-56 50,-97 0,-101 -111,-173 -193,-125 -73,44 -80,146 -12,207 38,35 105,42 155,15 z M 930,1351 c 110,-42 169,-134 170,-265 0,-243 -160,-481 -372,-552 -56,-18 -51,-29 18,-40 31,-4 51,-1 82,15 22,11 43,25 47,31 12,20 45,10 55,-16 28,-72 -8,-200 -66,-241 -62,-44 -159,-51 -224,-18 -53,28 -96,90 -130,189 -16,49 -19,51 -61,57 -100,15 -194,84 -226,167 -26,67 -23,186 6,282 67,219 209,361 405,406 85,19 226,12 296,-15 z m 3094,-8 c 208,-58 216,-305 13,-389 l -44,-18 30,-21 c 90,-61 100,-166 26,-278 -23,-36 -46,-54 -97,-79 l -67,-33 -348,-3 c -257,-2 -352,0 -363,9 -24,20 -16,47 25,79 39,32 39,33 121,322 52,182 80,300 77,317 -3,14 -9,39 -13,55 -13,54 0,56 305,56 227,0 285,-3 335,-17 z m 1079,-45 c 19,-22 19,-45 1,-105 -6,-21 -3,-23 38,-23 24,0 49,-5 56,-12 19,-19 14,-57 -13,-83 -19,-20 -34,-25 -74,-25 h -50 l -30,-97 c -75,-246 -74,-242 -60,-259 9,-12 27,-15 68,-12 54,3 56,2 59,-23 2,-20 -7,-35 -39,-64 -61,-55 -120,-78 -215,-83 -99,-5 -143,8 -183,53 -51,58 -50,86 8,266 28,88 51,166 51,174 0,7 -18,35 -40,60 -22,25 -40,52 -40,60 0,29 31,45 87,45 55,0 56,1 128,69 78,74 121,93 190,85 25,-3 47,-13 58,-26 z m 657,-127 c 102,-39 142,-94 115,-159 -20,-46 -59,-67 -124,-66 -91,0 -154,48 -154,115 0,26 -4,29 -33,29 -36,0 -64,-22 -64,-49 0,-29 42,-60 161,-120 137,-68 174,-107 174,-180 0,-75 -44,-138 -125,-178 -178,-90 -508,-54 -580,62 -36,58 -19,139 35,163 40,19 115,15 153,-8 41,-25 72,-76 72,-117 0,-32 1,-33 43,-33 50,0 67,13 67,51 0,33 -33,61 -135,112 -136,68 -182,153 -139,255 46,111 149,154 354,148 97,-3 137,-8 180,-25 z m -4293,-7 c 52,-38 52,-73 -1,-247 -25,-85 -46,-164 -46,-175 0,-39 57,-35 79,6 5,9 28,79 51,155 l 41,138 -26,31 c -23,27 -24,33 -12,52 25,37 101,59 209,60 94,1 98,0 127,-28 44,-42 41,-78 -25,-294 -31,-100 -54,-186 -50,-189 3,-3 16,1 30,10 29,19 36,14 36,-29 0,-23 -10,-45 -32,-70 -45,-51 -99,-74 -178,-74 -76,0 -124,21 -156,68 -21,31 -22,31 -39,12 -10,-11 -43,-32 -73,-47 -146,-71 -322,4 -322,137 0,25 21,110 45,190 25,80 45,154 45,164 0,11 -9,30 -21,42 -13,14 -19,29 -15,42 20,61 266,95 333,46 z m 895,-13 c 20,-22 28,-42 28,-69 0,-20 -27,-125 -60,-232 -63,-206 -69,-240 -45,-260 21,-17 19,-47 -4,-60 -29,-15 -384,-13 -399,2 -20,20 -14,39 23,72 32,28 40,48 96,235 l 61,203 -28,29 c -26,27 -26,29 -11,53 14,21 57,41 132,60 11,3 56,4 99,2 75,-3 81,-5 108,-35 z m 351,26 c 31,-13 93,-75 115,-113 9,-16 15,-12 62,40 61,66 95,86 144,86 141,0 213,-152 116,-245 -17,-17 -95,-68 -172,-115 -78,-47 -142,-89 -142,-95 -1,-15 48,-29 76,-22 15,4 43,30 67,62 49,65 73,70 126,24 63,-56 67,-149 9,-219 -39,-46 -80,-63 -150,-64 -78,0 -139,34 -180,99 -16,25 -32,45 -36,45 -4,0 -25,-24 -47,-52 -54,-72 -91,-93 -163,-91 -130,3 -222,109 -174,201 22,42 49,63 221,167 88,54 162,99 165,102 10,9 -44,44 -64,41 -11,-2 -37,-24 -56,-50 -43,-59 -76,-64 -121,-19 -35,36 -39,92 -9,150 34,68 135,100 213,68 z m 1842,-1 c 34,-15 65,-59 65,-94 0,-10 -29,-114 -65,-231 -36,-117 -65,-217 -65,-222 0,-5 10,-23 22,-39 21,-29 21,-30 3,-50 -18,-19 -28,-20 -213,-18 -176,3 -196,5 -206,21 -9,16 -5,24 27,51 36,30 42,44 97,227 33,107 60,203 60,213 0,11 -9,30 -21,42 -13,14 -19,29 -15,42 17,53 228,92 311,58 z"
         id="path11"
         style="fill:#000000;stroke:#800080;stroke-opacity:1;stroke-width:29.36328481;stroke-dasharray:none"
         inkscape:export-filename="path11.png"
         inkscape:export-xdpi="44.312981"
         inkscape:export-ydpi="44.312981" /><path
         d="m 678,1213 c -35,-38 -60,-91 -98,-208 -61,-192 -84,-337 -58,-363 19,-19 62,-14 92,9 35,28 66,91 109,224 60,187 82,326 55,353 -22,22 -72,14 -100,-15 z"
         id="path13"
         style="fill:#000000;stroke:#800080;stroke-opacity:1;stroke-width:29.36328481;stroke-dasharray:none" /><path
         d="m 3705,1144 c -15,-55 -30,-105 -32,-111 -4,-10 9,-13 47,-13 44,0 56,4 79,29 45,48 66,146 36,171 -8,7 -35,15 -58,17 l -44,5 z"
         id="path15"
         style="fill:#000000;stroke:#800080;stroke-opacity:1;stroke-width:29.36328481;stroke-dasharray:none" /><path
         d="m 3625,858 c -15,-45 -55,-195 -55,-206 0,-12 10,-14 49,-9 27,3 59,12 71,19 46,27 83,144 61,187 -10,17 -21,21 -67,21 -35,0 -56,-5 -59,-12 z"
         id="path17"
         style="fill:#000000;stroke:#800080;stroke-opacity:1;stroke-width:29.36328481;stroke-dasharray:none" /></g><path
       style="fill:#ffffff;stroke:#800080;stroke-width:6.13525"
       d="m 129.95238,677.73935 c -7.08312,-1.42942 -10.20577,-2.94244 -14.98637,-7.26143 -6.11363,-5.5233 -10.45036,-12.63513 -15.364997,-25.19714 -2.290049,-5.85346 -5.031625,-11.57453 -6.092391,-12.71349 -1.093859,-1.17449 -5.946634,-3.00642 -11.211451,-4.23233 C 65.510018,624.42608 52.069699,614.83325 46.053922,602.4669 35.982406,581.76335 42.883767,543.36361 61.72267,515.28469 c 2.916355,-4.34675 9.530835,-11.90569 14.698845,-16.79764 7.454842,-7.05663 11.757008,-10.05442 20.820973,-14.50826 14.219832,-6.98733 21.677312,-8.97563 36.630872,-9.76647 34.16795,-1.80703 55.30635,8.00175 64.09634,29.7424 2.28967,5.66314 2.55117,8.10847 2.47419,23.13661 -0.0766,14.96823 -0.42129,17.90576 -3.1544,26.8867 -9.92851,32.62486 -33.08042,59.29829 -60.32019,69.4952 -9.47721,3.54769 -12.59782,6.01935 -11.59379,9.1828 0.9986,3.1463 5.64647,4.90962 14.65938,5.56152 8.59667,0.6218 15.37149,-1.49914 22.73922,-7.11879 4.66467,-3.55792 6.49939,-2.84782 8.1116,3.13945 2.31451,8.59541 -0.86232,22.76311 -7.27806,32.45795 -3.42209,5.1711 -10.95559,9.26678 -20.18265,10.97249 -7.29726,1.34897 -7.14247,1.34816 -13.47262,0.0707 z m -17.42806,-67.15472 c 8.53575,-4.35461 14.53609,-14.56802 22.89397,-38.96872 11.4125,-33.31857 16.82649,-61.56879 13.84267,-72.23111 -1.60975,-5.75228 -11.22904,-8.22961 -19.13249,-4.92734 -5.0214,2.09808 -11.35264,9.78829 -15.79927,19.19052 -6.58064,13.91453 -17.371413,49.5751 -20.752705,68.58209 -1.67766,9.4305 -1.729063,22.91272 -0.09896,25.95858 2.623231,4.90156 11.858315,6.06327 19.046805,2.39598 z"
       id="path361"
       transform="scale(0.26458333)" /><path
       style="fill:#ffffff;stroke:#800080;stroke-width:6.13525"
       d="m 296.57108,626.60677 c -3.27791,-1.15997 -6.6187,-3.77726 -10.6118,-8.31365 -3.25913,-3.70256 -6.76376,-6.62072 -7.95131,-6.62072 -1.16793,0 -3.92833,1.58465 -6.1342,3.52143 -2.20588,1.93679 -7.75749,5.30078 -12.3369,7.47554 -18.58248,8.82477 -40.50592,5.00693 -50.50398,-8.79499 -6.52742,-9.01084 -5.94225,-14.46159 5.98208,-55.72212 3.43209,-11.8757 6.24016,-22.754 6.24016,-24.174 0,-1.42 -1.56396,-4.94296 -3.47546,-7.8288 -1.94983,-2.9437 -3.18506,-6.00372 -2.81393,-6.97088 1.7737,-4.62218 21.11485,-9.67192 37.17907,-9.707 19.29941,-0.0421 26.15389,4.97994 24.71809,18.11027 -0.37476,3.42713 -3.96556,17.75446 -7.97955,31.83851 -4.014,14.08404 -7.29817,27.31734 -7.29817,29.40732 0,7.60623 7.79027,10.69499 15.34945,6.08589 4.83318,-2.94697 5.74855,-4.99877 13.64055,-30.57532 10.49731,-34.01991 10.10892,-31.30316 5.31196,-37.15722 -4.75185,-5.799 -4.86906,-6.52529 -1.5518,-9.61579 5.10003,-4.7514 16.70901,-7.17078 34.67652,-7.2268 l 16.45399,-0.0513 3.97946,3.84937 c 2.18869,2.11716 4.26819,5.39398 4.62112,7.28182 0.89413,4.7829 -1.82131,16.97476 -9.67741,43.44995 -11.2862,38.03461 -11.62887,40.72719 -5.06478,39.79694 1.91464,-0.27134 4.36339,-0.87617 5.44166,-1.34406 1.58865,-0.68935 1.96049,-0.28621 1.96049,2.12548 0,7.06944 -9.16021,16.78532 -19.45779,20.63814 -7.75827,2.90275 -23.22657,3.16577 -30.69752,0.52199 z"
       id="path363"
       transform="scale(0.26458333)" /><path
       style="fill:#ffffff;stroke:#800080;stroke-width:6.13525"
       d="m 364.65086,626.57384 c -13.75738,-0.66268 -14.949,-1.84169 -8.32819,-8.24007 7.8318,-7.56869 8.21779,-8.52112 22.41926,-55.31969 l 9.49645,-31.29399 -4.66368,-4.75195 c -5.2772,-5.37708 -5.21812,-7.09077 0.36335,-10.53804 8.30555,-5.12972 17.56486,-6.90575 33.94578,-6.51111 l 15.28196,0.36815 3.79694,4.14632 c 2.08832,2.28047 4.1448,5.53226 4.56995,7.2262 1.24257,4.95081 -1.71362,16.86879 -16.63066,67.04702 -1.83171,6.16154 -3.60454,14.63902 -3.93963,18.83885 -0.53817,6.74513 -0.31058,8.04004 1.95062,11.09848 3.85228,5.21049 2.1306,6.88047 -7.96483,7.72567 -8.50584,0.71212 -37.32371,0.82909 -50.29732,0.20416 z"
       id="path365"
       transform="scale(0.26458333)" /><path
       style="fill:#ffffff;stroke:#800080;stroke-width:6.13525"
       d="m 424.45574,496.38099 c -2.53614,-1.15171 -6.06502,-4.00012 -7.84196,-6.3298 -2.75159,-3.60752 -3.23078,-5.25781 -3.23078,-11.12647 0,-8.7968 3.63229,-14.82518 11.11528,-18.44764 15.65758,-7.5797 31.84424,4.11693 27.58531,19.93341 -1.72492,6.40587 -7.03357,13.01673 -12.62706,15.72449 -6.02154,2.91498 -9.01542,2.96408 -15.00079,0.24601 z"
       id="path367"
       transform="scale(0.26458333)" /><path
       style="fill:#ffffff;stroke:#800080;stroke-width:6.13525"
       d="m 461.3673,625.2826 c -11.21867,-3.87689 -18.30997,-11.44356 -19.17653,-20.46203 -1.14232,-11.88834 3.85783,-16.586 43.8551,-41.20199 32.04394,-19.72118 32.82355,-20.45309 27.30675,-25.63585 -3.6392,-3.41886 -10.75223,-6.13199 -13.96332,-5.32606 -1.50571,0.37791 -6.64382,4.69966 -11.418,9.60389 -4.77419,4.90422 -9.19353,8.91677 -9.82076,8.91677 -2.41163,0 -8.62175,-5.21658 -10.66918,-8.96223 -2.76699,-5.06208 -2.18794,-12.61199 1.52271,-19.85361 5.11882,-9.98977 18.9649,-15.56978 31.29479,-12.61188 6.32661,1.51773 16.43334,9.91861 22.44562,18.65715 5.16237,7.50325 7.40073,6.90279 19.28509,-5.17337 11.94446,-12.13722 17.4553,-15.18113 25.9057,-14.30897 18.118,1.86994 28.89601,18.26154 21.73468,33.05488 -2.8234,5.83236 -8.44453,10.20646 -32.10163,24.97994 -29.64572,18.51329 -31.59727,19.9677 -31.59727,23.54815 0,3.77156 3.99303,6.29622 11.46355,7.24803 6.55001,0.83452 11.09589,-1.85843 19.0695,-11.29666 10.22191,-12.09951 11.82501,-12.58403 19.45898,-5.88132 5.56933,4.88995 8.58256,11.3902 8.58256,18.51467 0,11.52093 -9.37778,24.07798 -20.23333,27.09283 -2.29501,0.63738 -7.70163,1.13956 -12.0147,1.11595 -13.65055,-0.0747 -20.86557,-3.98853 -30.28197,-16.42658 -3.36436,-4.44395 -7.14882,-8.63211 -8.40991,-9.30703 -2.57045,-1.37566 -3.84058,-0.27909 -16.12145,13.91846 -3.96745,4.58665 -8.47783,8.51195 -11.20279,9.7496 -5.90433,2.68168 -17.22874,2.70316 -24.91419,0.0473 z"
       id="path369"
       transform="scale(0.26458333)" /><path
       style="fill:#ffffff;stroke:#800080;stroke-width:6.13525"
       d="m 610.94505,626.4868 c -21.00346,-0.39595 -21.7478,-0.98527 -12.6869,-10.0448 3.54805,-3.54751 7.43477,-8.71858 8.63715,-11.49127 3.04911,-7.03123 22.2503,-74.57321 26.55153,-93.39751 3.5344,-15.46824 3.54234,-15.57339 1.76518,-23.38698 -0.98186,-4.31689 -1.55259,-8.0815 -1.26829,-8.36579 1.92174,-1.92174 14.5134,-2.50864 53.90766,-2.51262 24.64614,-0.002 48.17477,0.48199 52.28584,1.07664 11.35885,1.64301 19.19341,5.04939 26.07156,11.33563 10.08845,9.22029 13.13103,21.30466 8.48698,33.7083 -4.15658,11.1017 -11.82021,17.98365 -27.22896,24.45168 -4.75349,1.99534 -8.64272,3.99514 -8.64272,4.44398 0,0.44885 1.97836,2.1253 4.39635,3.72545 15.2421,10.08675 19.97415,19.8599 16.32372,33.71359 -4.03099,15.29791 -10.52642,23.299 -24.91404,30.68912 l -10.92979,5.61404 -48.17201,0.37495 c -26.4946,0.20623 -55.55707,0.23574 -64.58326,0.0655 z M 683.573,608.87406 c 7.77852,-2.30997 10.90663,-5.09819 14.81833,-13.20822 4.55767,-9.44931 6.44163,-19.68474 4.69576,-25.5119 -1.90354,-6.35347 -5.01163,-7.95158 -15.45412,-7.94619 -14.2706,0.007 -13.85943,-0.39612 -19.20819,18.84966 -5.66488,20.38328 -6.53271,25.55709 -4.66444,27.80822 1.84854,2.22735 12.32574,2.2318 19.81266,0.009 z m 22.35316,-71.04889 c 7.27943,-4.43877 13.42668,-15.69307 14.52573,-26.59349 0.77978,-7.73389 -0.55547,-11.84507 -4.73692,-14.58486 -3.17714,-2.08174 -20.59835,-5.1902 -21.8766,-3.90344 -0.9662,0.97263 -12.14852,40.25096 -12.14852,42.67215 0,3.58843 2.49483,4.5591 11.70692,4.55482 6.90142,-0.003 9.8424,-0.50673 12.52939,-2.14518 z"
       id="path371"
       transform="scale(0.26458333)" /><path
       style="fill:#ffffff;stroke:#800080;stroke-width:6.13525"
       d="m 793.52944,626.2737 c -13.96704,-0.32879 -25.76421,-0.96814 -26.21594,-1.42075 -0.45174,-0.45262 1.46955,-3.27209 4.26953,-6.26549 2.79997,-2.99341 5.83199,-6.90815 6.73782,-8.69943 4.27219,-8.44831 22.17161,-68.2408 22.46706,-75.05054 0.15131,-3.4876 -0.55144,-5.56022 -2.95273,-8.70847 -1.73321,-2.27236 -2.98893,-4.97465 -2.79049,-6.00509 1.41531,-7.34909 38.46056,-14.11991 51.67973,-9.44559 5.33535,1.88659 10.84925,9.09075 10.84925,14.17502 0,1.97307 -3.02533,13.87042 -6.72296,26.43855 -3.69764,12.56813 -8.99096,30.56214 -11.76294,39.98669 -2.77198,9.42454 -5.03996,18.02201 -5.03996,19.10548 0,1.08347 1.47384,4.29395 3.2752,7.1344 3.03212,4.78116 3.13605,5.28523 1.40035,6.79175 -2.52396,2.19069 -14.12697,2.6948 -45.19392,1.96347 z"
       id="path373"
       transform="scale(0.26458333)" /><path
       style="fill:#ffffff;stroke:#800080;stroke-width:6.13525"
       d="m 838.49527,496.00358 c -12.61304,-6.37191 -14.50992,-21.3201 -4.03473,-31.79529 13.06172,-13.06171 33.19564,-6.26066 33.19564,11.21318 0,9.48931 -7.46473,19.4078 -16.49349,21.9151 -5.90474,1.63976 -7.014,1.52303 -12.66742,-1.33299 z"
       id="path375"
       transform="scale(0.26458333)" /><path
       style="fill:#ffffff;stroke:#800080;stroke-width:6.13525"
       d="m 882.81857,627.07214 c -6.12719,-1.61767 -15.84881,-11.38771 -16.89841,-16.98258 -1.04869,-5.58997 0.7806,-14.12189 8.02311,-37.4204 3.36752,-10.83302 6.90491,-22.81014 7.86087,-26.61583 2.05748,-8.19088 1.67177,-9.27238 -7.31298,-20.50514 -3.14308,-3.92949 -5.7147,-7.81873 -5.7147,-8.64275 0,-2.49546 4.2396,-3.97365 13.2655,-4.62518 10.32382,-0.74521 12.96491,-1.97924 21.87648,-10.22158 16.55867,-15.31518 21.85828,-18.32215 32.29166,-18.32215 7.76318,0 13.58427,2.87312 14.18735,7.00245 0.22041,1.50919 -0.235,6.12804 -1.01203,10.26411 -1.80173,9.59053 -1.12117,10.47369 8.67711,11.2602 9.04631,0.72615 11.09715,2.53861 8.91731,7.88081 -2.30674,5.6532 -5.82755,7.39999 -16.54222,8.20715 l -9.64159,0.72631 -6.5029,21.41247 c -10.29408,33.89593 -11.68691,39.07183 -11.71595,43.53798 -0.0495,7.61406 6.289,10.8169 18.55418,9.37537 5.71207,-0.67134 6.06464,-0.56998 6.06464,1.74351 0,2.95133 -8.79084,11.73924 -15.92604,15.92075 -10.93496,6.40831 -35.42587,9.44342 -48.45139,6.0045 z"
       id="path377"
       transform="scale(0.26458333)" /><path
       style="fill:#ffffff;stroke:#800080;stroke-width:6.13525"
       d="m 1000.5028,627.3147 c -19.42098,-3.06104 -34.83475,-9.77 -40.26118,-17.52401 -6.02372,-8.60748 -4.81277,-19.75927 2.74684,-25.2961 3.73657,-2.73675 14.552,-3.74268 21.17675,-1.96963 9.44462,2.52777 17.92449,14.10745 17.92449,24.47682 0,2.28563 0.7402,3.86767 2.1669,4.63121 3.2591,1.74421 15.3847,1.41003 19.131,-0.52725 3.8126,-1.97158 6.3199,-8.67987 5.0889,-13.61541 -1.2867,-5.15891 -10.5023,-12.78494 -24.1525,-19.98644 -14.40492,-7.59968 -23.32499,-15.06097 -26.9446,-22.53808 -6.29082,-12.9951 2.06305,-32.69515 17.0945,-40.31216 10.8742,-5.51038 17.6042,-6.57182 41.7843,-6.59011 15.2521,-0.0115 24.3728,0.47212 28.5671,1.51489 9.4228,2.34265 19.1235,7.35997 24.086,12.4576 3.8448,3.94949 4.4811,5.29964 4.4811,9.50825 0,5.70197 -2.7729,10.08685 -8.5192,13.47152 -2.9564,1.7414 -5.8006,2.23741 -12.7668,2.22644 -7.9165,-0.0125 -9.672,-0.4147 -15.036,-3.44517 -6.6128,-3.73597 -10.1696,-8.79982 -10.1696,-14.4785 0,-5.73395 -2.7142,-8.38878 -8.5763,-8.38878 -9.4954,0 -16.0698,5.33227 -16.0698,13.03353 0,4.83562 8.7936,12.29835 24.0952,20.44858 21.9472,11.68992 27.9773,15.45603 32.1599,20.08569 7.3199,8.10232 8.1798,17.12163 2.669,27.99668 -5.313,10.48458 -16.8057,17.96268 -34.8381,22.66843 -10.3124,2.69116 -35.049,3.85249 -45.8379,2.152 z"
       id="path379"
       transform="scale(0.26458333)" /></g></svg>
